name Walk9.mot
datacolumns 19
datarows 25
range 2.47100000 2.49500000
endheader

                time	   L_ground_force_vx	   L_ground_force_vy	   L_ground_force_vz	   L_ground_force_px	   L_ground_force_py	   L_ground_force_pz	   R_ground_force_vx	   R_ground_force_vy	   R_ground_force_vz	   R_ground_force_px	   R_ground_force_py	   R_ground_force_pz	   L_ground_torque_x	   L_ground_torque_y	   L_ground_torque_z	   R_ground_torque_x	   R_ground_torque_y	   R_ground_torque_z	
          2.47100000	         21.48130313	        665.06903565	         33.84326048	         -0.38328607	          0.00000000	         -0.06770110	         -0.01116251	          0.19571866	          0.02473018	          0.00007195	          0.00000000	          0.00004719	          0.00000000	          0.72743310	          0.00000000	          0.00000000	         -0.00705342	          0.00000000	
          2.47200000	         21.78602755	        666.22337066	         33.97098320	         -0.38288992	          0.00000000	         -0.06776802	         -0.01249391	          0.20616006	          0.02582192	          0.00007499	          0.00000000	          0.00004906	          0.00000000	          0.72728700	          0.00000000	          0.00000000	         -0.00727986	          0.00000000	
          2.47300000	         22.09264986	        667.38305215	         34.09879318	         -0.38249316	          0.00000000	         -0.06783455	         -0.01389743	          0.21672030	          0.02690847	          0.00007799	          0.00000000	          0.00005091	          0.00000000	          0.72722713	          0.00000000	          0.00000000	         -0.00749727	          0.00000000	
          2.47400000	         22.40116189	        668.54782731	         34.22663282	         -0.38209578	          0.00000000	         -0.06790074	         -0.01537397	          0.22736682	          0.02798487	          0.00008096	          0.00000000	          0.00005272	          0.00000000	          0.72726223	          0.00000000	          0.00000000	         -0.00770393	          0.00000000	
          2.47500000	         22.71154922	        669.71743504	         34.35444633	         -0.38169775	          0.00000000	         -0.06796662	         -0.01692423	          0.23806366	          0.02904571	          0.00008386	          0.00000000	          0.00005447	          0.00000000	          0.72740141	          0.00000000	          0.00000000	         -0.00789797	          0.00000000	
          2.47600000	         23.02379133	        670.89160514	         34.48217910	         -0.38129906	          0.00000000	         -0.06803224	         -0.01854865	          0.24877133	          0.03008517	          0.00008669	          0.00000000	          0.00005617	          0.00000000	          0.72765400	          0.00000000	          0.00000000	         -0.00807742	          0.00000000	
          2.47700000	         23.33786183	        672.07005905	         34.60977712	         -0.38089969	          0.00000000	         -0.06809762	         -0.02024742	          0.25944660	          0.03109698	          0.00008942	          0.00000000	          0.00005779	          0.00000000	          0.72802961	          0.00000000	          0.00000000	         -0.00824019	          0.00000000	
          2.47800000	         23.65372843	        673.25251148	         34.73718658	         -0.38049959	          0.00000000	         -0.06816281	         -0.02202042	          0.27004238	          0.03207438	          0.00009204	          0.00000000	          0.00005933	          0.00000000	          0.72853814	          0.00000000	          0.00000000	         -0.00838406	          0.00000000	
          2.47900000	         23.97135274	        674.43867180	         34.86435397	         -0.38009873	          0.00000000	         -0.06822787	         -0.02386724	          0.28050752	          0.03301014	          0.00009451	          0.00000000	          0.00006076	          0.00000000	          0.72918991	          0.00000000	          0.00000000	         -0.00850667	          0.00000000	
          2.48000000	         24.29068985	        675.62824426	         34.99122655	         -0.37969709	          0.00000000	         -0.06829283	         -0.02578711	          0.29078667	          0.03389653	          0.00009683	          0.00000000	          0.00006207	          0.00000000	          0.72999567	          0.00000000	          0.00000000	         -0.00860554	          0.00000000	
          2.48100000	         24.61168784	        676.82092718	         35.11775298	         -0.37929460	          0.00000000	         -0.06835773	         -0.02777887	          0.30082008	          0.03472530	          0.00009897	          0.00000000	          0.00006325	          0.00000000	          0.73096649	          0.00000000	          0.00000000	         -0.00867805	          0.00000000	
          2.48200000	         24.93428734	        678.01641175	         35.24388367	         -0.37889124	          0.00000000	         -0.06842261	         -0.02984101	          0.31054349	          0.03548767	          0.00010089	          0.00000000	          0.00006428	          0.00000000	          0.73211358	          0.00000000	          0.00000000	         -0.00872147	          0.00000000	
          2.48300000	         25.25842115	        679.21438123	         35.36957075	         -0.37848695	          0.00000000	         -0.06848753	         -0.03197152	          0.31988793	          0.03617432	          0.00010258	          0.00000000	          0.00006514	          0.00000000	          0.73344805	          0.00000000	          0.00000000	         -0.00873290	          0.00000000	
          2.48400000	         25.58401392	        680.41451054	         35.49476752	         -0.37808169	          0.00000000	         -0.06855250	         -0.03416797	          0.32877960	          0.03677538	          0.00010400	          0.00000000	          0.00006581	          0.00000000	          0.73498077	          0.00000000	          0.00000000	         -0.00870933	          0.00000000	
          2.48500000	         25.91098187	        681.61646622	         35.61942773	         -0.37767540	          0.00000000	         -0.06861756	         -0.03642742	          0.33713969	          0.03728042	          0.00010512	          0.00000000	          0.00006627	          0.00000000	          0.73672239	          0.00000000	          0.00000000	         -0.00864760	          0.00000000	
          2.48600000	         26.23923260	        682.81990665	         35.74350472	         -0.37726804	          0.00000000	         -0.06868274	         -0.03874638	          0.34488429	          0.03767842	          0.00010592	          0.00000000	          0.00006649	          0.00000000	          0.73868338	          0.00000000	          0.00000000	         -0.00854442	          0.00000000	
          2.48700000	         26.56866506	        684.02448234	         35.86695082	         -0.37685954	          0.00000000	         -0.06874805	         -0.04112082	          0.35192422	          0.03795779	          0.00010635	          0.00000000	          0.00006647	          0.00000000	          0.74087410	          0.00000000	          0.00000000	         -0.00839637	          0.00000000	
          2.48800000	         26.89916967	        685.22983629	         35.98971698	         -0.37644985	          0.00000000	         -0.06881352	         -0.04354607	          0.35816491	          0.03810637	          0.00010638	          0.00000000	          0.00006617	          0.00000000	          0.74330496	          0.00000000	          0.00000000	         -0.00819988	          0.00000000	
          2.48900000	         27.23062876	        686.43560380	         36.11175276	         -0.37603892	          0.00000000	         -0.06887915	         -0.04601685	          0.36350634	          0.03811138	          0.00010597	          0.00000000	          0.00006556	          0.00000000	          0.74598639	          0.00000000	          0.00000000	         -0.00795126	          0.00000000	
          2.49000000	         27.56291721	        687.64141207	         36.23300643	         -0.37562669	          0.00000000	         -0.06894497	         -0.04852718	          0.36784287	          0.03795945	          0.00010509	          0.00000000	          0.00006463	          0.00000000	          0.74892885	          0.00000000	          0.00000000	         -0.00764671	          0.00000000	
          2.49100000	         27.89590321	        688.84687968	         36.35342533	         -0.37521310	          0.00000000	         -0.06901098	         -0.05107037	          0.37106321	          0.03763664	          0.00010369	          0.00000000	          0.00006335	          0.00000000	          0.75214259	          0.00000000	          0.00000000	         -0.00728227	          0.00000000	
          2.49200000	         28.22944917	        690.05161640	         36.47295607	         -0.37479811	          0.00000000	         -0.06907721	         -0.05363898	          0.37305035	          0.03712840	          0.00010173	          0.00000000	          0.00006168	          0.00000000	          0.75563744	          0.00000000	          0.00000000	         -0.00685390	          0.00000000	
          2.49300000	         28.56341269	        691.25522405	         36.59154466	         -0.37438166	          0.00000000	         -0.06914365	         -0.05622474	          0.37368147	          0.03641959	          0.00009917	          0.00000000	          0.00005961	          0.00000000	          0.75942251	          0.00000000	          0.00000000	         -0.00635741	          0.00000000	
          2.49400000	         28.89764760	        692.45729840	         36.70913654	         -0.37396369	          0.00000000	         -0.06921034	         -0.05881858	          0.37282798	          0.03549450	          0.00009597	          0.00000000	          0.00005709	          0.00000000	          0.76350601	          0.00000000	          0.00000000	         -0.00578853	          0.00000000	
          2.49500000	         29.23200485	        693.65743232	         36.82567659	         -0.37354417	          0.00000000	         -0.06927729	         -0.06141055	          0.37035542	          0.03433686	          0.00009207	          0.00000000	          0.00005411	          0.00000000	          0.76789524	          0.00000000	          0.00000000	         -0.00514288	          0.00000000	
